# xmcd CD database file
# Copyright (C) 1993-1998 Ti Kan
#
# Track frame offsets:
#  182
#  19437
#  39317
#  56985
#  74402
#  86165
#  109957
#  131212
#  152957
#  167460
#  186707
#  199167
#
# Disc length: 3016 seconds
#
# Revision: 1
# Processed by: cddbd v1.4b41PL1 Copyright (c) Steve Scherf et al.
# Submitted via: KiC 2.1 - (C) 1996-1998 Alwin Hoogerdijk
#
DISCID=ba0bc60c
DTITLE=Guitar Shorty - Topsy Turvy
DYEAR=1900
DGENRE=
TTITLE0=I'm So Glad I Met You
TTITLE1=I Just Can't Run Away From The Blues
TTITLE2=Mean Husband Blues
TTITLE3=The Botton line
TTITLE4=I Never Thought
TTITLE5=Hard Line
TTITLE6=Jody
TTITLE7=It All Went Down The Drain
TTITLE8=How Long Can It Last ?
TTITLE9=Old Time Sare
TTITLE10=You Confuse Me
TTITLE11=More Than You'll Ever Know
EXTD=
EXTT0=
EXTT1=
EXTT2=
EXTT3=
EXTT4=
EXTT5=
EXTT6=
EXTT7=
EXTT8=
EXTT9=
EXTT10=
EXTT11=
PLAYORDER=
